<?xml version="1.0" standalone="no"?><!DOCTYPE svg PUBLIC "-//W3C//DTD SVG 1.1//EN" "http://www.w3.org/Graphics/SVG/1.1/DTD/svg11.dtd"><svg t="1745403990098" class="icon" viewBox="0 0 1024 1024" version="1.1" xmlns="http://www.w3.org/2000/svg" p-id="2713" xmlns:xlink="http://www.w3.org/1999/xlink" width="200" height="200"><path d="M682.666667 955.733333a17.066667 17.066667 0 0 1-17.066667-17.066666v-68.266667h-136.533333v68.266667a17.066667 17.066667 0 1 1-34.133334 0v-68.266667h-136.533333v68.266667a17.066667 17.066667 0 1 1-34.133333 0v-68.266667h-68.266667c-66.030933 0-102.4-36.369067-102.4-102.4v-68.266667H85.333333a17.066667 17.066667 0 1 1 0-34.133333h68.266667v-136.533333H85.333333a17.066667 17.066667 0 1 1 0-34.133334h68.266667v-136.533333H85.333333a17.066667 17.066667 0 0 1 0-34.133333h68.266667v-68.266667c0-66.030933 36.369067-102.4 102.4-102.4h68.266667V85.333333a17.066667 17.066667 0 0 1 34.133333 0v68.266667h137.472a18.7392 18.7392 0 0 1-0.085333-1.706667V85.333333a17.066667 17.066667 0 0 1 34.133333 0v66.56c0 0.580267-0.034133 1.143467-0.085333 1.706667H665.6V85.333333a17.066667 17.066667 0 1 1 34.133333 0v68.266667h68.266667c66.030933 0 102.4 36.369067 102.4 102.4v68.266667h68.266667a17.066667 17.066667 0 1 1 0 34.133333h-68.266667v136.533333h68.266667a17.066667 17.066667 0 1 1 0 34.133334h-68.266667v136.533333h68.266667a17.066667 17.066667 0 1 1 0 34.133333h-68.266667v68.266667c0 66.030933-36.369067 102.4-102.4 102.4h-68.266667v68.266667a17.066667 17.066667 0 0 1-17.066666 17.066666z m0-119.466666h85.333333c47.223467 0 68.266667-21.0432 68.266667-68.266667V256c0-47.223467-21.0432-68.266667-68.266667-68.266667H256c-47.223467 0-68.266667 21.0432-68.266667 68.266667v512c0 47.223467 21.0432 68.266667 68.266667 68.266667h426.666667z" p-id="2714" fill="#1296db"></path><path d="M682.666667 716.8H341.333333a34.133333 34.133333 0 0 1-34.133333-34.133333V341.333333a34.133333 34.133333 0 0 1 34.133333-34.133333h341.333334a34.133333 34.133333 0 0 1 34.133333 34.133333v341.333334a34.133333 34.133333 0 0 1-34.133333 34.133333z m-307.2-68.266667h273.066666V375.466667H375.466667v273.066666z" p-id="2715" fill="#1296db"></path></svg>