<?xml version="1.0" standalone="no"?><!DOCTYPE svg PUBLIC "-//W3C//DTD SVG 1.1//EN" "http://www.w3.org/Graphics/SVG/1.1/DTD/svg11.dtd"><svg t="1747902311286" class="icon" viewBox="0 0 1088 1024" version="1.1" xmlns="http://www.w3.org/2000/svg" p-id="2689" xmlns:xlink="http://www.w3.org/1999/xlink" width="212.5" height="200"><path d="M899.328 154.688a25.6 25.6 0 0 0-25.6-25.6h-672c-37.76 0-68.288 30.528-68.288 68.224v629.376c0 37.696 30.528 68.224 68.224 68.224h672a25.6 25.6 0 0 0 0-51.2h-672a17.088 17.088 0 0 1-17.024-17.024V197.312c0-9.408 7.68-17.024 17.024-17.024h672a25.6 25.6 0 0 0 25.6-25.6z" fill="#5180F1" p-id="2690"></path><path d="M323.328 275.84c-24.256 0-54.08 28.032-54.08 76.8 0 48.704 29.824 76.8 54.08 76.8 24.32 0 54.144-28.096 54.144-76.8 0-48.768-29.824-76.8-54.144-76.8z m-105.28 76.8c0-64.384 41.6-128 105.28-128 63.808 0 105.344 63.616 105.344 128 0 64.32-41.6 128-105.344 128-63.744 0-105.28-63.68-105.28-128zM516.672 614.592a93.696 93.696 0 0 0-17.728 56.832c0 23.04 7.232 43.072 17.728 56.768 10.496 13.632 23.232 20.032 35.392 20.032 12.16 0 24.96-6.4 35.456-20.032 10.496-13.696 17.728-33.664 17.728-56.768 0-23.168-7.232-43.136-17.728-56.832-10.496-13.632-23.232-19.968-35.392-19.968-12.16 0-24.96 6.336-35.456 19.968z m-40.576-31.232c17.984-23.36 44.672-39.936 76.032-39.936s57.984 16.576 75.968 39.936c17.92 23.424 28.352 54.592 28.352 88.064 0 33.408-10.368 64.64-28.352 88-17.984 23.424-44.672 40-76.032 40s-57.984-16.64-75.968-40a144.768 144.768 0 0 1-28.352-88c0-33.472 10.368-64.64 28.352-88.064z" fill="#5180F1" p-id="2691"></path><path d="M552.128 225.088c14.08 0 25.6 11.52 25.6 25.6v203.84a25.6 25.6 0 0 1-51.2 0V250.688c0-14.08 11.456-25.6 25.6-25.6zM323.392 543.872c14.08 0 25.6 11.52 25.6 25.6v203.84a25.6 25.6 0 0 1-51.2 0V569.472c0-14.08 11.456-25.6 25.6-25.6z" fill="#5CB88C" p-id="2692"></path><path d="M825.152 724.48l36.672-36.608a25.6 25.6 0 0 1 36.224 36.224l-61.888 61.824a46.912 46.912 0 0 1-66.368 0l-61.824-61.824a25.6 25.6 0 0 1 36.224-36.16l29.76 29.76V250.688a25.6 25.6 0 0 1 51.2 0v473.856z" fill="#5180F1" p-id="2693"></path></svg>