<?xml version="1.0" standalone="no"?><!DOCTYPE svg PUBLIC "-//W3C//DTD SVG 1.1//EN" "http://www.w3.org/Graphics/SVG/1.1/DTD/svg11.dtd"><svg t="1745414081960" class="icon" viewBox="0 0 1447 1024" version="1.1" xmlns="http://www.w3.org/2000/svg" p-id="8206" xmlns:xlink="http://www.w3.org/1999/xlink" width="282.6171875" height="200"><path d="M6.023529 173.660819v760.51462c0 53.894737 35.929825 89.824561 83.836258 89.824561h1029.988304c47.906433 0 83.836257-35.929825 83.836257-89.824561V251.508772c0-5.988304 0-17.964912-5.988304-23.953216-11.976608-35.929825-41.918129-59.883041-83.836257-59.883041H604.853939c-5.988304-89.824561-77.847953-167.672515-167.672515-167.672515h-347.321637c-47.906433 0-89.824561 35.929825-89.824562 89.824561l5.988304 83.836258z" fill="#0869B0" p-id="8207"></path><path d="M1209.672652 359.298246h-946.152047c-17.964912 0-29.94152 11.976608-35.929824 23.953216L6.023529 898.245614v35.929825c0 53.894737 35.929825 89.824561 83.836258 89.824561h1035.976608c41.918129 0 71.859649-29.94152 77.847953-71.859649l233.54386-556.912281c5.988304-17.964912-5.988304-29.94152-23.953217-29.94152l-203.602339-5.988304z" fill="#4AADF4" p-id="8208"></path></svg>