<?xml version="1.0" standalone="no"?><!DOCTYPE svg PUBLIC "-//W3C//DTD SVG 1.1//EN" "http://www.w3.org/Graphics/SVG/1.1/DTD/svg11.dtd"><svg t="1751250926699" class="icon" viewBox="0 0 1024 1024" version="1.1" xmlns="http://www.w3.org/2000/svg" p-id="1607" xmlns:xlink="http://www.w3.org/1999/xlink" width="200" height="200"><path d="M61.046154 361.944615a43.323077 43.323077 0 0 0 43.323077 43.323077h777.097846a82.707692 82.707692 0 0 0 63.842461-135.286154l-160.68923-195.111384a43.323077 43.323077 0 1 0-66.875077 55.059692l155.372307 188.691692H104.369231a43.323077 43.323077 0 0 0-43.086769 38.596924l-0.236308 4.726153z m901.907692 296.172308a43.323077 43.323077 0 0 0-43.323077-43.323077H142.532923a82.707692 82.707692 0 0 0-63.842461 135.286154l160.68923 195.111385a43.323077 43.323077 0 1 0 66.875077-55.059693L150.882462 701.44H919.630769a43.323077 43.323077 0 0 0 43.086769-38.596923l0.236308-4.726154z" fill="#000000" p-id="1608"></path></svg>